<?xml version="1.0" encoding="utf-8"?>
<!-- Generator: Adobe Illustrator 25.4.1, SVG Export Plug-In . SVG Version: 6.00 Build 0)  -->
<svg version="1.1" id="Layer_1" xmlns="http://www.w3.org/2000/svg" xmlns:xlink="http://www.w3.org/1999/xlink" x="0px" y="0px"
	 viewBox="0 0 1404 906.2" style="enable-background:new 0 0 1404 906.2;" xml:space="preserve">
	 
<style type="text/css">

	.st0{fill:#211915;}
	.st1{font-family:'Urbanist-SemiBold';}
	.st2{font-size:27px;}
	.st3{letter-spacing:-1;}
	.st4{font-family:'Nunito-Regular';}
	.st5{font-size:22px;}
	.st6{fill:none;stroke:#000000;stroke-width:1.16;stroke-miterlimit:10;stroke-dasharray:9.29;}
</style>

<text transform="matrix(1 0 0 1 90.48 112.87)" class="st0 st1 st2 st3">P</text>
<text transform="matrix(1 0 0 1 104.07 112.87)" class="st0 st1 st2">a</text>
<text transform="matrix(1 0 0 1 120.77 112.87)" class="st0 st1 st2">s</text>
<text transform="matrix(1 0 0 1 132.55 112.87)" class="st0 st1 st2">o 1</text>
<text transform="matrix(1 0 0 1 90.28 154.92)" class="st0 st4 st5">In</text>
<text transform="matrix(1 0 0 1 108.43 154.92)" class="st0 st4 st5">t</text>
<text transform="matrix(1 0 0 1 116.02 154.92)" class="st0 st4 st5">eg</text>
<text transform="matrix(1 0 0 1 140.62 154.92)" class="st0 st4 st5">r</text>
<text transform="matrix(1 0 0 1 148.38 154.92)" class="st0 st4 st5">a tu </text>
<text transform="matrix(1 0 0 1 191.43 154.92)" class="st0 st4 st5">t</text>
<text transform="matrix(1 0 0 1 199.27 154.92)" class="st0 st4 st5">ienda a </text>
<text transform="matrix(1 0 0 1 90.28 181.32)" class="st0 st4 st5">nue</text>
<text transform="matrix(1 0 0 1 126.82 181.32)" class="st0 st4 st5">s</text>
<text transform="matrix(1 0 0 1 137.29 181.32)" class="st0 st4 st5">t</text>
<text transform="matrix(1 0 0 1 144.99 181.32)" class="st0 st4 st5">r</text>
<text transform="matrix(1 0 0 1 152.74 181.32)" class="st0 st4 st5">o si</text>
<text transform="matrix(1 0 0 1 186.33 181.32)" class="st0 st4 st5">st</text>
<text transform="matrix(1 0 0 1 204.39 181.32)" class="st0 st4 st5">ema </text>
<text transform="matrix(1 0 0 1 90.28 207.72)" class="st0 st4 st5">pa</text>
<text transform="matrix(1 0 0 1 114.77 207.72)" class="st0 st4 st5">r</text>
<text transform="matrix(1 0 0 1 122.53 207.72)" class="st0 st4 st5">a </text>
<text transform="matrix(1 0 0 1 139.87 207.72)" class="st0 st4 st5">r</text>
<text transform="matrix(1 0 0 1 147.61 207.72)" class="st0 st4 st5">ecibir tus </text>
<text transform="matrix(1 0 0 1 90.28 234.12)" class="st0 st4 st5">pedidos en </text>
<text transform="matrix(1 0 0 1 203.93 234.12)" class="st0 st4 st5">t</text>
<text transform="matrix(1 0 0 1 211.76 234.12)" class="st0 st4 st5">iempo </text>
<text transform="matrix(1 0 0 1 90.28 260.52)" class="st0 st4 st5">r</text>
<text transform="matrix(1 0 0 1 98.02 260.52)" class="st0 st4 st5">ea</text>
<text transform="matrix(1 0 0 1 121.39 260.52)" class="st0 st4 st5">l</text>
<text transform="matrix(1 0 0 1 128.12 260.52)" class="st0 st4 st5">.</text>
<path class="st6" d="M186.3,105.6h103.4c16.6,0,30,13.4,30,30c0,0,0,0,0,0l0.5,597.7c0,16.6,13.4,30,30,30h45.9"/>
<text transform="matrix(1 0 0 1 391.49 113.74)" class="st0 st1 st2 st3">P</text>
<text transform="matrix(1 0 0 1 405.08 113.74)" class="st0 st1 st2">a</text>
<text transform="matrix(1 0 0 1 421.78 113.74)" class="st0 st1 st2">s</text>
<text transform="matrix(1 0 0 1 433.56 113.74)" class="st0 st1 st2">o 2</text>
<text transform="matrix(1 0 0 1 391.28 154.24)" class="st0 st4 st5">E</text>
<text transform="matrix(1 0 0 1 404.11 154.24)" class="st0 st4 st5">n</text>
<text transform="matrix(1 0 0 1 416.49 154.24)" class="st0 st4 st5">vía tu </text>
<text transform="matrix(1 0 0 1 475.98 154.24)" class="st0 st4 st5">st</text>
<text transform="matrix(1 0 0 1 494.04 154.24)" class="st0 st4 st5">ock a </text>
<text transform="matrix(1 0 0 1 391.28 180.64)" class="st0 st4 st5">nue</text>
<text transform="matrix(1 0 0 1 427.82 180.64)" class="st0 st4 st5">s</text>
<text transform="matrix(1 0 0 1 438.29 180.64)" class="st0 st4 st5">t</text>
<text transform="matrix(1 0 0 1 445.99 180.64)" class="st0 st4 st5">r</text>
<text transform="matrix(1 0 0 1 453.74 180.64)" class="st0 st4 st5">os </text>
<text transform="matrix(1 0 0 1 391.28 207.04)" class="st0 st4 st5">Mic</text>
<text transform="matrix(1 0 0 1 425.38 207.04)" class="st0 st4 st5">r</text>
<text transform="matrix(1 0 0 1 433.12 207.04)" class="st0 st4 st5">o</text>
<text transform="matrix(1 0 0 1 445.69 207.04)" class="st0 st4 st5">-fu</text>
<text transform="matrix(1 0 0 1 474.68 207.04)" class="st0 st4 st5">l</text>
<text transform="matrix(1 0 0 1 481.04 207.04)" class="st0 st4 st5">fillment </text>
<text transform="matrix(1 0 0 1 391.28 233.44)" class="st0 st4 st5">C</text>
<text transform="matrix(1 0 0 1 405.32 233.44)" class="st0 st4 st5">en</text>
<text transform="matrix(1 0 0 1 429.52 233.44)" class="st0 st4 st5">t</text>
<text transform="matrix(1 0 0 1 437.11 233.44)" class="st0 st4 st5">e</text>
<text transform="matrix(1 0 0 1 448.81 233.44)" class="st0 st4 st5">r</text>
<text transform="matrix(1 0 0 1 456.58 233.44)" class="st0 st4 st5">s en donde </text>
<text transform="matrix(1 0 0 1 570.47 233.44)" class="st0 st4 st5">l</text>
<text transform="matrix(1 0 0 1 576.87 233.44)" class="st0 st4 st5">o </text>
<text transform="matrix(1 0 0 1 391.28 259.84)" class="st0 st4 st5">alma</text>
<text transform="matrix(1 0 0 1 439.94 259.84)" class="st0 st4 st5">c</text>
<text transform="matrix(1 0 0 1 449.91 259.84)" class="st0 st4 st5">ena</text>
<text transform="matrix(1 0 0 1 485.77 259.84)" class="st0 st4 st5">r</text>
<text transform="matrix(1 0 0 1 493.51 259.84)" class="st0 st4 st5">emos </text>
<text transform="matrix(1 0 0 1 391.28 286.24)" class="st0 st4 st5">según tus </text>
<text transform="matrix(1 0 0 1 391.28 312.64)" class="st0 st4 st5">ne</text>
<text transform="matrix(1 0 0 1 415.48 312.64)" class="st0 st4 st5">c</text>
<text transform="matrix(1 0 0 1 425.45 312.64)" class="st0 st4 st5">esidade</text>
<text transform="matrix(1 0 0 1 501.85 312.64)" class="st0 st4 st5">s</text>
<text transform="matrix(1 0 0 1 512.32 312.64)" class="st0 st4 st5">.</text>
<path class="st6" d="M487.3,106.5h143c16.6,0,30,13.4,30,31l2.1,272"/>
<text transform="matrix(1 0 0 1 1147.49 113.74)" class="st0 st1 st2 st3">P</text>
<text transform="matrix(1 0 0 1 1161.08 113.74)" class="st0 st1 st2">a</text>
<text transform="matrix(1 0 0 1 1177.78 113.74)" class="st0 st1 st2">s</text>
<text transform="matrix(1 0 0 1 1189.5599 113.74)" class="st0 st1 st2">o 4</text>
<text transform="matrix(1 0 0 1 1147.28 154.24)" class="st0 st4 st5">Despachamos </text>
<text transform="matrix(1 0 0 1 1147.28 180.64)" class="st0 st4 st5">al clien</text>
<text transform="matrix(1 0 0 1 1217.13 180.64)" class="st0 st4 st5">t</text>
<text transform="matrix(1 0 0 1 1224.72 180.64)" class="st0 st4 st5">e de </text>
<text transform="matrix(1 0 0 1 1147.28 207.04)" class="st0 st4 st5">f</text>
<text transform="matrix(1 0 0 1 1154.3 207.04)" class="st0 st4 st5">orma </text>
<text transform="matrix(1 0 0 1 1210.5701 207.04)" class="st0 st4 st5">e</text>
<text transform="matrix(1 0 0 1 1222.1901 207.04)" class="st0 st4 st5">xp</text>
<text transform="matrix(1 0 0 1 1246.5601 207.04)" class="st0 st4 st5">r</text>
<text transform="matrix(1 0 0 1 1254.3101 207.04)" class="st0 st4 st5">es</text>
<text transform="matrix(1 0 0 1 1276.5901 207.04)" class="st0 st4 st5">s</text>
<text transform="matrix(1 0 0 1 1287.0701 207.04)" class="st0 st4 st5">.</text>
<path class="st6" d="M1138.3,106.5h-18c-16.6,0-30,13.4-30,31l-1.3,200.2c-0.1,16.5-13.5,29.9-30.1,29.8h-13.6"/>
<path class="st6" d="M808.3,106.5h-12c-16.6,0-30,13.4-30,31l-0.9,620.7"/>
<text transform="matrix(1 0 0 1 820.49 113.74)" class="st0 st1 st2 st3">P</text>
<text transform="matrix(1 0 0 1 834.08 113.74)" class="st0 st1 st2">a</text>
<text transform="matrix(1 0 0 1 850.78 113.74)" class="st0 st1 st2">s</text>
<text transform="matrix(1 0 0 1 862.56 113.74)" class="st0 st1 st2">o 3</text>
<text transform="matrix(1 0 0 1 820.28 154.24)" class="st0 st4 st5">R</text>
<text transform="matrix(1 0 0 1 834.76 154.24)" class="st0 st4 st5">ecibimos tus </text>
<text transform="matrix(1 0 0 1 820.28 180.64)" class="st0 st4 st5">pedido</text>
<text transform="matrix(1 0 0 1 887.8 180.64)" class="st0 st4 st5">s</text>
<text transform="matrix(1 0 0 1 898.27 180.64)" class="st0 st4 st5">, </text>
<text transform="matrix(1 0 0 1 908.96 180.64)" class="st0 st4 st5">l</text>
<text transform="matrix(1 0 0 1 915.36 180.64)" class="st0 st4 st5">os </text>
<text transform="matrix(1 0 0 1 820.28 207.04)" class="st0 st4 st5">pic</text>
<text transform="matrix(1 0 0 1 848.4 207.04)" class="st0 st4 st5">k</text>
<text transform="matrix(1 0 0 1 859.11 207.04)" class="st0 st4 st5">eamos y </text>
<text transform="matrix(1 0 0 1 820.28 233.44)" class="st0 st4 st5">empa</text>
<text transform="matrix(1 0 0 1 875.3 233.44)" class="st0 st4 st5">c</text>
<text transform="matrix(1 0 0 1 885.4 233.44)" class="st0 st4 st5">amos según </text>
<text transform="matrix(1 0 0 1 820.28 259.84)" class="st0 st4 st5">tus </text>
<text transform="matrix(1 0 0 1 856.58 259.84)" class="st0 st4 st5">r</text>
<text transform="matrix(1 0 0 1 864.32 259.84)" class="st0 st4 st5">equerimien</text>
<text transform="matrix(1 0 0 1 974.01 259.84)" class="st0 st4 st5">t</text>
<text transform="matrix(1 0 0 1 981.6 259.84)" class="st0 st4 st5">o</text>
<text transform="matrix(1 0 0 1 993.84 259.84)" class="st0 st4 st5">s</text>
<text transform="matrix(1 0 0 1 1004.3101 259.84)" class="st0 st4 st5">.</text>
</svg>
