<svg id="Layer_1" data-name="Layer 1" xmlns="http://www.w3.org/2000/svg" viewBox="0 0 1404 906.25"><defs><style>.cls-1{fill:#dbdbdb;}.cls-2{fill:#fff;}.cls-3{fill:#e54b0e;}.cls-4{font-size:27px;font-family:Urbanist-SemiBold, Urbanist;font-weight:600;}.cls-4,.cls-7{fill:#211915;}.cls-5{letter-spacing:-0.04em;}.cls-6{letter-spacing:-0.01em;}.cls-7{font-size:22px;font-family:Nunito-Regular, Nunito;}.cls-8{letter-spacing:0em;}.cls-9{letter-spacing:0.01em;}.cls-10{letter-spacing:-0.01em;}.cls-11{letter-spacing:0.01em;}.cls-12{letter-spacing:0.01em;}.cls-13,.cls-24{fill:none;stroke-miterlimit:10;}.cls-13{stroke:#000;stroke-width:1.16px;stroke-dasharray:9.29;}.cls-14{letter-spacing:0.02em;}.cls-15{letter-spacing:-0.01em;}.cls-16{letter-spacing:-0.03em;}.cls-17{letter-spacing:-0.01em;}.cls-18{letter-spacing:-0.01em;}.cls-19{letter-spacing:-0.01em;}.cls-20{letter-spacing:0em;}.cls-21{letter-spacing:-0.01em;}.cls-22{letter-spacing:-0.01em;}.cls-23{letter-spacing:0em;}.cls-24{stroke:#dbdbdb;stroke-width:31px;}</style></defs><rect class="cls-1" width="1404" height="906.25"/><path class="cls-2" d="M964.26,386.66,764.46,710.24c-5.05,8.14-10.6,7.31-12.18,6.87-1.36-.37-3.6-1-3.62-7l-.32-257.45c-.13-41.67-25.1-76.23-63.64-88-39.58-12.14-82.58,3.78-107,39.61-.4.59-.78,1.18-1.15,1.79L396.1,701.67a61.55,61.55,0,0,1,67.21,47.05c.36,1.53.61,3.06.85,4.6L648.41,451.41c5-6.83,9.94-6,11.37-5.54,1.25.33,3.53,1.08,3.55,7l.32,257.45c.13,42.6,25.83,77.38,65.45,88.6,40.88,11.59,84.12-6,107.64-43.91l200.38-324.51a61.46,61.46,0,0,1-72.86-43.81Z"/><path class="cls-3" d="M444.47,753.15a42,42,0,0,0-18.9-26.26,43.26,43.26,0,0,0-6-3.1,42.16,42.16,0,1,0,24.91,29.36Z"/><path class="cls-3" d="M1064.75,360.69a42,42,0,0,0-18.9-26.26,42.68,42.68,0,0,0-6-3.09,42.05,42.05,0,1,0,24.91,29.35Z"/><text class="cls-4" transform="translate(90.48 112.87)"><tspan class="cls-5">P</tspan><tspan x="13.59" y="0">a</tspan><tspan class="cls-6" x="30.29" y="0">s</tspan><tspan x="42.07" y="0">o 1</tspan></text><text class="cls-7" transform="translate(90.28 154.92)">In<tspan class="cls-8" x="18.15" y="0">t</tspan><tspan x="25.74" y="0">eg</tspan><tspan class="cls-8" x="50.34" y="0">r</tspan><tspan x="58.1" y="0">a tu </tspan><tspan class="cls-9" x="101.15" y="0">t</tspan><tspan x="108.99" y="0">ienda a </tspan><tspan x="0" y="26.4">nue</tspan><tspan class="cls-8" x="36.54" y="26.4">s</tspan><tspan x="47.01" y="26.4">t</tspan><tspan class="cls-10" x="54.71" y="26.4">r</tspan><tspan x="62.46" y="26.4">o si</tspan><tspan class="cls-8" x="96.05" y="26.4">st</tspan><tspan x="114.11" y="26.4">ema </tspan><tspan x="0" y="52.8">pa</tspan><tspan class="cls-8" x="24.49" y="52.8">r</tspan><tspan x="32.25" y="52.8">a </tspan><tspan class="cls-10" x="49.59" y="52.8">r</tspan><tspan x="57.33" y="52.8">ecibir tus </tspan><tspan x="0" y="79.2">pedidos en </tspan><tspan class="cls-11" x="113.65" y="79.2">t</tspan><tspan x="121.48" y="79.2">iempo </tspan><tspan class="cls-10" x="0" y="105.6">r</tspan><tspan x="7.74" y="105.6">ea</tspan><tspan class="cls-12" x="31.11" y="105.6">l</tspan><tspan x="37.84" y="105.6">. </tspan></text><path class="cls-13" d="M186.28,105.6H289.64a30,30,0,0,1,30,30l.55,597.73a30,30,0,0,0,30,30H396.1"/><text class="cls-4" transform="translate(391.49 113.74)"><tspan class="cls-5">P</tspan><tspan x="13.59" y="0">a</tspan><tspan class="cls-6" x="30.29" y="0">s</tspan><tspan x="42.07" y="0">o 2</tspan></text><text class="cls-7" transform="translate(391.28 154.24)">E<tspan class="cls-8" x="12.83" y="0">n</tspan><tspan x="25.21" y="0">vía tu </tspan><tspan class="cls-8" x="84.7" y="0">st</tspan><tspan x="102.76" y="0">ock a </tspan><tspan x="0" y="26.4">nue</tspan><tspan class="cls-8" x="36.54" y="26.4">s</tspan><tspan x="47.01" y="26.4">t</tspan><tspan class="cls-10" x="54.71" y="26.4">r</tspan><tspan x="62.46" y="26.4">os </tspan><tspan x="0" y="52.8">Mic</tspan><tspan class="cls-10" x="34.1" y="52.8">r</tspan><tspan class="cls-14" x="41.84" y="52.8">o</tspan><tspan x="54.41" y="52.8">-fu</tspan><tspan class="cls-15" x="83.4" y="52.8">l</tspan><tspan x="89.76" y="52.8">fillment </tspan><tspan class="cls-16" x="0" y="79.2">C</tspan><tspan x="14.04" y="79.2">en</tspan><tspan class="cls-8" x="38.24" y="79.2">t</tspan><tspan x="45.83" y="79.2">e</tspan><tspan class="cls-8" x="57.53" y="79.2">r</tspan><tspan x="65.3" y="79.2">s en donde </tspan><tspan class="cls-8" x="179.19" y="79.2">l</tspan><tspan x="185.59" y="79.2">o </tspan><tspan x="0" y="105.6">alma</tspan><tspan class="cls-17" x="48.66" y="105.6">c</tspan><tspan x="58.63" y="105.6">ena</tspan><tspan class="cls-18" x="94.49" y="105.6">r</tspan><tspan x="102.23" y="105.6">emos </tspan><tspan x="0" y="132">según tus </tspan><tspan x="0" y="158.4">ne</tspan><tspan class="cls-17" x="24.2" y="158.4">c</tspan><tspan x="34.17" y="158.4">esidade</tspan><tspan class="cls-8" x="110.57" y="158.4">s</tspan><tspan x="121.04" y="158.4">.</tspan></text><path class="cls-13" d="M487.29,106.47h143c16.56,0,30,13.43,30,31l2.07,272"/><text class="cls-4" transform="translate(1147.49 113.74)"><tspan class="cls-5">P</tspan><tspan x="13.59" y="0">a</tspan><tspan class="cls-6" x="30.29" y="0">s</tspan><tspan x="42.07" y="0">o 4</tspan></text><text class="cls-7" transform="translate(1147.28 154.24)">Despachamos <tspan x="0" y="26.4">al clien</tspan><tspan class="cls-8" x="69.85" y="26.4">t</tspan><tspan x="77.44" y="26.4">e de </tspan><tspan class="cls-19" x="0" y="52.8">f</tspan><tspan x="7.02" y="52.8">orma </tspan><tspan class="cls-20" x="63.29" y="52.8">e</tspan><tspan x="74.91" y="52.8">xp</tspan><tspan class="cls-10" x="99.28" y="52.8">r</tspan><tspan x="107.03" y="52.8">es</tspan><tspan class="cls-8" x="129.31" y="52.8">s</tspan><tspan x="139.79" y="52.8">. </tspan></text><path class="cls-13" d="M1138.29,106.47h-18c-16.57,0-30,13.43-30,31l-1.35,200.22a30,30,0,0,1-30.07,29.84l-13.58,0"/><path class="cls-13" d="M808.28,106.47h-12c-16.56,0-30,13.43-30,31l-.89,620.67"/><text class="cls-4" transform="translate(820.49 113.74)"><tspan class="cls-5">P</tspan><tspan x="13.59" y="0">a</tspan><tspan class="cls-6" x="30.29" y="0">s</tspan><tspan x="42.07" y="0">o 3</tspan></text><text class="cls-7" transform="translate(820.28 154.24)"><tspan class="cls-21">R</tspan><tspan x="14.48" y="0">ecibimos tus </tspan><tspan x="0" y="26.4">pedido</tspan><tspan class="cls-8" x="67.52" y="26.4">s</tspan><tspan x="77.99" y="26.4">, </tspan><tspan class="cls-8" x="88.68" y="26.4">l</tspan><tspan x="95.08" y="26.4">os </tspan><tspan x="0" y="52.8">pic</tspan><tspan class="cls-22" x="28.12" y="52.8">k</tspan><tspan x="38.83" y="52.8">eamos y </tspan><tspan x="0" y="79.2">empa</tspan><tspan class="cls-23" x="55.02" y="79.2">c</tspan><tspan x="65.12" y="79.2">amos según </tspan><tspan x="0" y="105.6">tus </tspan><tspan class="cls-10" x="36.3" y="105.6">r</tspan><tspan x="44.04" y="105.6">equerimien</tspan><tspan class="cls-8" x="153.73" y="105.6">t</tspan><tspan x="161.32" y="105.6">o</tspan><tspan class="cls-8" x="173.56" y="105.6">s</tspan><tspan x="184.03" y="105.6">.</tspan></text><line class="cls-24" x1="479.98" y1="474.44" x2="776.86" y2="427.31"/><line class="cls-24" x1="598.62" y1="737.49" x2="895.5" y2="690.36"/></svg>