<?xml version="1.0" encoding="utf-8"?>
<!-- Generator: Adobe Illustrator 25.4.1, SVG Export Plug-In . SVG Version: 6.00 Build 0)  -->
<svg version="1.1" id="Layer_1" xmlns="http://www.w3.org/2000/svg" xmlns:xlink="http://www.w3.org/1999/xlink" x="0px" y="0px"
	 viewBox="0 0 1404.36 677.19" style="enable-background:new 0 0 1404.36 677.19;" xml:space="preserve">
<style type="text/css">
	.st0{fill:url(#SVGID_1_);}
	.st1{fill:#DBDBDB;}
	.st2{fill:#FFFFFF;}
	.st3{opacity:0.71;}
	.st4{fill:#333333;}
	.st5{fill:#343333;stroke-dasharray: 20;}
	.st6{fill:#E54B0E;}
	.st7{opacity:0.5;fill:#333333;}
	.st8{fill:#1D1D1B;}
	.st9{fill:none;}
	.st10{opacity:0.78;fill:#1D1D1B;}
	.st11{opacity:0.05;}
	.st12{fill:none;stroke:#000000;stroke-width:1.1613;stroke-miterlimit:10;stroke-dasharray:9.2908;}
	.st13{fill:#E6E6E6;}
	.st14{fill:none;stroke:#DBDBDB;stroke-width:31;stroke-miterlimit:10;}
	.st15{fill:none;stroke:#DBDBDB;stroke-width:20.6674;stroke-miterlimit:10;}
	.st16{fill:none;stroke:#000000;stroke-width:3;stroke-linecap:round;stroke-linejoin:round;stroke-miterlimit:10;}
	.st17{fill:none;stroke:#000000;stroke-width:3;stroke-linecap:round;stroke-miterlimit:10;}
	.st18{fill:none;stroke:#000000;stroke-width:4;stroke-linecap:round;stroke-linejoin:round;stroke-miterlimit:10;}
	.st19{fill:none;stroke:#FFFFFF;stroke-width:1.192;stroke-miterlimit:10;stroke-dasharray:7;}
	.st20{fill:#FFFFFF;stroke:#FFFFFF;stroke-width:0.5;stroke-miterlimit:10;}
	.st21{fill:none;stroke:#FFFFFF;stroke-width:4;stroke-miterlimit:10;}
	.st22{fill:none;stroke:#343333;stroke-width:3;stroke-miterlimit:10;}
	.st23{fill:none;stroke:#000000;stroke-width:5;stroke-linecap:round;stroke-linejoin:round;stroke-miterlimit:10;}
	.st24{fill:none;stroke:#000000;stroke-width:4;stroke-miterlimit:10;}
	.st25{clip-path:url(#SVGID_00000147930437602558297570000010070258855539515066_);fill:none;}
	.st26{opacity:0.36;}
	.st27{opacity:0.19;}
	.st28{fill:#4D4D4D;}
	.st29{opacity:0.19;fill:#4D4D4D;}
	.st30{fill:none;stroke:#000000;stroke-width:2;stroke-miterlimit:10;}
	.st31{fill:#E54B0E;stroke:#E54B0E;stroke-width:0.5442;stroke-miterlimit:10;}
	.st32{fill:#E54B0E;stroke:#E54B0E;stroke-width:0.7879;stroke-miterlimit:10;}
	.st33{opacity:0.4;}
	.st34{fill:none;stroke:#B3B3B3;stroke-miterlimit:10;}
	.st35{fill:none;stroke:#E54B0E;stroke-width:1.192;stroke-miterlimit:10;stroke-dasharray:7;}
	.st36{opacity:0.5;fill:none;stroke:#DBDBDB;stroke-miterlimit:10;}
	.st37{fill:none;stroke:#343333;stroke-width:2;stroke-miterlimit:10;}
	.st38{clip-path:url(#SVGID_00000002344049438795447520000002442929093082486673_);}
	.st39{clip-path:url(#SVGID_00000111885046804591934780000002935943928291520385_);}
	.st40{clip-path:url(#SVGID_00000124849014114230988330000003078035151656619451_);fill:#343333;}
	.st41{clip-path:url(#SVGID_00000070100872642736014750000005267311158140886970_);}
	.st42{clip-path:url(#SVGID_00000044171744546511880740000017478869820423789702_);}
	.st43{clip-path:url(#SVGID_00000139286884351306285420000012648379287639359908_);fill:#343333;}
	.st44{clip-path:url(#SVGID_00000143602734363895202250000010269887088237486234_);}
	.st45{clip-path:url(#SVGID_00000086690581233055957270000004268003363002822333_);}
	.st46{clip-path:url(#SVGID_00000137815883487781780900000013319951416395074183_);fill:#343333;}
	.st47{fill:none;stroke:#B3B3B3;stroke-width:0.8734;stroke-miterlimit:10;}
	.st48{fill:none;stroke:#B3B3B3;stroke-width:0.8767;stroke-miterlimit:10;}
	.st49{fill:none;stroke:#B3B3B3;stroke-width:0.9225;stroke-miterlimit:10;}
	.st50{fill:none;stroke:#B3B3B3;stroke-width:0.7126;stroke-miterlimit:10;}
	.st51{fill:none;stroke:#B3B3B3;stroke-width:0.889;stroke-miterlimit:10;}
	.st52{fill:none;stroke:#B3B3B3;stroke-width:0.9492;stroke-miterlimit:10;}
	.st53{opacity:0.4;fill:none;stroke:#B3B3B3;stroke-miterlimit:10;}
	.st54{opacity:0.4;fill:none;stroke:#B3B3B3;stroke-width:1.0248;stroke-miterlimit:10;}
	.st55{opacity:0.4;fill:none;stroke:#B3B3B3;stroke-width:0.8734;stroke-miterlimit:10;}
	.st56{fill:none;stroke:#00FF18;stroke-width:1.192;stroke-miterlimit:10;}
</style>
<path  class="st31 path" d="M831.58,434.14c-13.86,0-25.1,10.98-25.1,24.52c0,13.54,11.24,24.52,25.1,24.52c13.86,0,25.1-10.98,25.1-24.52
	C856.67,445.12,845.44,434.14,831.58,434.14z"/>
<circle class="st32" cx="195.17" cy="279.59" r="26"/>
<circle class="st32" cx="502.17" cy="531.59" r="26"/>
<path class="st56" d="M-17.33,312.19h159c6.63,0,12-5.37,12-12v-8.6c0-6.63,5.37-12,12-12h59c6.63,0,12,5.37,12,12v8.6
	c0,6.63,5.37,12,12,12l455.04,1.67c6.61,0.02,11.96,5.39,11.96,12l0,174.53c0,6.56,5.28,11.91,11.84,12l529.81,7.07
	c6.56,0.09,11.84,5.43,11.84,12v142.63"/>
<path class="st56" d="M-1.33,512.24h331.79c6.27,0,11.35-5.08,11.35-11.35l0,0c0-6.27,5.08-11.35,11.35-11.35h139.46
	c6.27,0,11.35,5.08,11.35,11.35v62.63c0,6.27,5.08,11.35,11.35,11.35h50.74c6.27,0,11.35,5.08,11.35,11.35v87.88"/>
<path style="stroke-dasharray: 20; animation: dash 5s linear; " class="st56" d="M835.34,434.14v-25.06c0-6.63,5.37-12,12-12h14.89c6.63,0,12-5.37,12-12v-64.54c0-6.63,5.37-12,12-12h354.78
	c6.63,0,12-5.37,12-12V119.88c0-6.63,5.37-12,12-12h148.67"/>
</svg>
